<?xml version="1.0" encoding="utf-8"?>
<!-- Generator: Adobe Illustrator 27.0.0, SVG Export Plug-In . SVG Version: 6.00 Build 0)  -->
<svg version="1.1" id="Layer_1" xmlns="http://www.w3.org/2000/svg" xmlns:xlink="http://www.w3.org/1999/xlink" x="0px" y="0px"
	 viewBox="0 0 207 49" style="enable-background:new 0 0 207 49;" xml:space="preserve">
<style type="text/css">
	.st0{fill:#5F5F5F;}
	.st1{fill:#5F6FFF;}
	.st2{fill:#6D6F6E;}
	.st3{fill:#232323;}
</style>
<path class="st0" d="M60,46v-1.5h2.1c0.5,0,1-0.1,1.4-0.3c0.4-0.2,0.7-0.6,0.9-1c0.2-0.4,0.3-0.9,0.3-1.5c0-0.6-0.1-1-0.3-1.4
	c-0.2-0.4-0.6-0.7-1-1c-0.4-0.2-0.9-0.3-1.4-0.3h-2.2v-1.5h2.2c0.6,0,1.2,0.1,1.7,0.3c0.5,0.2,1,0.5,1.4,0.9
	c0.4,0.4,0.7,0.8,0.9,1.3c0.2,0.5,0.3,1.1,0.3,1.7c0,0.6-0.1,1.2-0.3,1.7c-0.2,0.5-0.5,1-0.9,1.3c-0.4,0.4-0.9,0.7-1.4,0.9
	c-0.5,0.2-1.1,0.3-1.7,0.3H60z M58.9,46v-8.4h1.6V46H58.9z M70.1,46.1c-0.5,0-1-0.1-1.4-0.4c-0.4-0.3-0.8-0.6-1-1.1
	c-0.2-0.5-0.4-1-0.4-1.5c0-0.6,0.1-1.1,0.4-1.5c0.2-0.5,0.6-0.8,1-1.1c0.4-0.3,0.9-0.4,1.4-0.4c0.4,0,0.8,0.1,1.1,0.3
	c0.3,0.2,0.6,0.4,0.8,0.7c0.2,0.3,0.3,0.6,0.3,1v2.1c0,0.4-0.1,0.7-0.3,1c-0.2,0.3-0.5,0.5-0.8,0.7C70.9,46,70.5,46.1,70.1,46.1z
	 M70.4,44.7c0.4,0,0.8-0.1,1.1-0.4c0.3-0.3,0.4-0.7,0.4-1.1c0-0.3-0.1-0.6-0.2-0.8c-0.1-0.2-0.3-0.4-0.5-0.6
	c-0.2-0.1-0.5-0.2-0.8-0.2c-0.3,0-0.5,0.1-0.8,0.2c-0.2,0.1-0.4,0.3-0.5,0.6c-0.1,0.2-0.2,0.5-0.2,0.8c0,0.3,0.1,0.6,0.2,0.8
	c0.1,0.2,0.3,0.4,0.5,0.6C69.8,44.6,70.1,44.7,70.4,44.7z M71.8,46v-1.6L72,43l-0.3-1.4v-1.4h1.6V46H71.8z M76.7,46.1
	c-0.3,0-0.7,0-1-0.1c-0.3-0.1-0.6-0.2-0.9-0.4c-0.3-0.2-0.5-0.4-0.7-0.6l0.9-0.9c0.2,0.2,0.4,0.4,0.7,0.5c0.3,0.1,0.6,0.2,0.9,0.2
	c0.3,0,0.4,0,0.6-0.1c0.1-0.1,0.2-0.2,0.2-0.3c0-0.2-0.1-0.3-0.2-0.4c-0.1-0.1-0.3-0.2-0.5-0.2c-0.2-0.1-0.5-0.1-0.7-0.2
	c-0.2-0.1-0.5-0.2-0.7-0.3c-0.2-0.1-0.4-0.3-0.6-0.5c-0.1-0.2-0.2-0.5-0.2-0.9c0-0.4,0.1-0.7,0.3-1c0.2-0.3,0.4-0.5,0.8-0.6
	c0.3-0.2,0.7-0.2,1.2-0.2c0.5,0,0.9,0.1,1.3,0.3c0.4,0.2,0.7,0.4,1,0.8L78.1,42c-0.2-0.2-0.4-0.4-0.6-0.5c-0.2-0.1-0.5-0.1-0.7-0.1
	c-0.2,0-0.4,0-0.5,0.1c-0.1,0.1-0.2,0.2-0.2,0.3c0,0.1,0.1,0.3,0.2,0.3c0.1,0.1,0.3,0.2,0.6,0.2c0.2,0.1,0.5,0.1,0.7,0.2
	c0.2,0.1,0.5,0.2,0.7,0.3c0.2,0.1,0.4,0.3,0.5,0.5c0.1,0.2,0.2,0.5,0.2,0.9c0,0.6-0.2,1-0.6,1.4C78,46,77.4,46.1,76.7,46.1z
	 M83.9,46v-3.3c0-0.3-0.1-0.6-0.3-0.8c-0.2-0.2-0.5-0.3-0.8-0.3c-0.2,0-0.4,0-0.6,0.1c-0.2,0.1-0.3,0.2-0.4,0.4
	c-0.1,0.2-0.1,0.4-0.1,0.6L81,42.4c0-0.5,0.1-0.9,0.3-1.2c0.2-0.3,0.5-0.6,0.8-0.8c0.3-0.2,0.7-0.3,1.2-0.3c0.4,0,0.8,0.1,1.2,0.3
	c0.3,0.2,0.6,0.5,0.8,0.8c0.2,0.3,0.3,0.7,0.3,1.2V46H83.9z M80,46v-8.7h1.6V46H80z M90,46.1c-0.4,0-0.8-0.1-1.1-0.3
	c-0.3-0.2-0.6-0.4-0.8-0.7c-0.2-0.3-0.3-0.6-0.3-1v-2.1c0-0.4,0.1-0.7,0.3-1c0.2-0.3,0.5-0.5,0.8-0.7c0.3-0.2,0.7-0.3,1.1-0.3
	c0.5,0,1,0.1,1.4,0.4c0.4,0.3,0.8,0.6,1,1.1c0.2,0.5,0.4,1,0.4,1.5c0,0.6-0.1,1.1-0.4,1.5c-0.2,0.5-0.6,0.8-1,1.1
	C91,46,90.5,46.1,90,46.1z M89.7,44.7c0.3,0,0.5-0.1,0.8-0.2c0.2-0.1,0.4-0.3,0.5-0.6c0.1-0.2,0.2-0.5,0.2-0.8
	c0-0.3-0.1-0.6-0.2-0.8c-0.1-0.2-0.3-0.4-0.5-0.6c-0.2-0.1-0.5-0.2-0.8-0.2s-0.5,0.1-0.8,0.2c-0.2,0.1-0.4,0.3-0.5,0.6
	c-0.1,0.2-0.2,0.5-0.2,0.8c0,0.3,0.1,0.6,0.2,0.8c0.1,0.2,0.3,0.4,0.5,0.6C89.2,44.6,89.4,44.7,89.7,44.7z M86.8,46v-8.7h1.6v4.3
	L88.1,43l0.3,1.4V46H86.8z M96.6,46.1c-0.6,0-1.1-0.1-1.6-0.4c-0.5-0.3-0.8-0.6-1.1-1.1c-0.3-0.5-0.4-1-0.4-1.5s0.1-1.1,0.4-1.5
	c0.3-0.5,0.6-0.8,1.1-1.1c0.5-0.3,1-0.4,1.6-0.4c0.6,0,1.1,0.1,1.6,0.4c0.5,0.3,0.8,0.6,1.1,1.1c0.3,0.4,0.4,1,0.4,1.5
	s-0.1,1.1-0.4,1.5c-0.3,0.5-0.6,0.8-1.1,1.1C97.7,46,97.1,46.1,96.6,46.1z M96.6,44.7c0.3,0,0.6-0.1,0.8-0.2
	c0.2-0.1,0.4-0.3,0.5-0.6c0.1-0.2,0.2-0.5,0.2-0.8s-0.1-0.6-0.2-0.8c-0.1-0.2-0.3-0.4-0.5-0.5c-0.2-0.1-0.5-0.2-0.8-0.2
	c-0.3,0-0.5,0.1-0.8,0.2c-0.2,0.1-0.4,0.3-0.5,0.5s-0.2,0.5-0.2,0.8s0.1,0.6,0.2,0.8c0.1,0.2,0.3,0.4,0.5,0.6
	C96,44.6,96.3,44.7,96.6,44.7z M103.1,46.1c-0.5,0-1-0.1-1.4-0.4c-0.4-0.3-0.8-0.6-1-1.1c-0.2-0.5-0.4-1-0.4-1.5
	c0-0.6,0.1-1.1,0.4-1.5c0.2-0.5,0.6-0.8,1-1.1c0.4-0.3,0.9-0.4,1.4-0.4c0.4,0,0.8,0.1,1.1,0.3c0.3,0.2,0.6,0.4,0.8,0.7
	c0.2,0.3,0.3,0.6,0.3,1v2.1c0,0.4-0.1,0.7-0.3,1c-0.2,0.3-0.5,0.5-0.8,0.7C103.9,46,103.5,46.1,103.1,46.1z M103.4,44.7
	c0.4,0,0.8-0.1,1.1-0.4c0.3-0.3,0.4-0.7,0.4-1.1c0-0.3-0.1-0.6-0.2-0.8c-0.1-0.2-0.3-0.4-0.5-0.6c-0.2-0.1-0.5-0.2-0.8-0.2
	c-0.3,0-0.5,0.1-0.8,0.2c-0.2,0.1-0.4,0.3-0.5,0.6c-0.1,0.2-0.2,0.5-0.2,0.8c0,0.3,0.1,0.6,0.2,0.8c0.1,0.2,0.3,0.4,0.5,0.6
	C102.8,44.6,103.1,44.7,103.4,44.7z M104.8,46v-1.6L105,43l-0.3-1.4v-1.4h1.6V46H104.8z M107.7,46v-5.8h1.6V46H107.7z M109.3,42.8
	l-0.6-0.4c0.1-0.7,0.3-1.3,0.6-1.7c0.3-0.4,0.8-0.6,1.5-0.6c0.3,0,0.5,0,0.8,0.1c0.2,0.1,0.4,0.2,0.6,0.4l-1,1.1
	c-0.1-0.1-0.2-0.2-0.3-0.2c-0.1,0-0.3-0.1-0.4-0.1c-0.3,0-0.6,0.1-0.8,0.3C109.4,42,109.3,42.4,109.3,42.8z M115,46.1
	c-0.5,0-1-0.1-1.4-0.4c-0.4-0.3-0.8-0.6-1-1.1c-0.2-0.5-0.4-1-0.4-1.5c0-0.6,0.1-1.1,0.4-1.5c0.2-0.5,0.6-0.8,1-1.1
	c0.4-0.3,0.9-0.4,1.5-0.4c0.4,0,0.8,0.1,1.1,0.3c0.3,0.2,0.6,0.4,0.8,0.7c0.2,0.3,0.3,0.6,0.3,1v2.1c0,0.4-0.1,0.7-0.3,1
	c-0.2,0.3-0.5,0.5-0.8,0.7C115.8,46,115.4,46.1,115,46.1z M115.3,44.7c0.3,0,0.6-0.1,0.8-0.2c0.2-0.1,0.4-0.3,0.5-0.6
	c0.1-0.2,0.2-0.5,0.2-0.8c0-0.3-0.1-0.6-0.2-0.8c-0.1-0.2-0.3-0.4-0.5-0.6c-0.2-0.1-0.5-0.2-0.8-0.2c-0.3,0-0.6,0.1-0.8,0.2
	c-0.2,0.1-0.4,0.3-0.5,0.6c-0.1,0.2-0.2,0.5-0.2,0.8c0,0.3,0.1,0.6,0.2,0.8c0.1,0.2,0.3,0.4,0.5,0.6C114.7,44.6,115,44.7,115.3,44.7
	z M118.2,46h-1.6v-1.6l0.3-1.4l-0.3-1.4v-4.3h1.6V46z M123.3,42.9v-1.3h2c0.3,0,0.5-0.1,0.7-0.2s0.4-0.3,0.5-0.4
	c0.1-0.2,0.2-0.4,0.2-0.7c0-0.3-0.1-0.5-0.2-0.7c-0.1-0.2-0.3-0.4-0.5-0.5c-0.2-0.1-0.4-0.2-0.7-0.2h-2v-1.3h2.1
	c0.5,0,1,0.1,1.4,0.3c0.4,0.2,0.8,0.5,1,0.9c0.2,0.4,0.4,0.9,0.4,1.4s-0.1,1-0.4,1.4c-0.2,0.4-0.6,0.7-1,0.9
	c-0.4,0.2-0.9,0.3-1.4,0.3H123.3z M122.1,46v-8.4h1.6V46H122.1z M131.5,46.1c-0.5,0-1-0.1-1.4-0.4s-0.8-0.6-1-1.1
	c-0.2-0.5-0.4-1-0.4-1.5c0-0.6,0.1-1.1,0.4-1.5c0.2-0.5,0.6-0.8,1-1.1s0.9-0.4,1.4-0.4c0.4,0,0.8,0.1,1.1,0.3
	c0.3,0.2,0.6,0.4,0.8,0.7c0.2,0.3,0.3,0.6,0.3,1v2.1c0,0.4-0.1,0.7-0.3,1c-0.2,0.3-0.5,0.5-0.8,0.7C132.3,46,131.9,46.1,131.5,46.1z
	 M131.8,44.7c0.4,0,0.8-0.1,1.1-0.4c0.3-0.3,0.4-0.7,0.4-1.1c0-0.3-0.1-0.6-0.2-0.8c-0.1-0.2-0.3-0.4-0.5-0.6
	c-0.2-0.1-0.5-0.2-0.8-0.2c-0.3,0-0.5,0.1-0.8,0.2c-0.2,0.1-0.4,0.3-0.5,0.6c-0.1,0.2-0.2,0.5-0.2,0.8c0,0.3,0.1,0.6,0.2,0.8
	c0.1,0.2,0.3,0.4,0.5,0.6C131.2,44.6,131.5,44.7,131.8,44.7z M133.2,46v-1.6l0.3-1.4l-0.3-1.4v-1.4h1.6V46H133.2z M140,46v-3.3
	c0-0.3-0.1-0.6-0.3-0.8c-0.2-0.2-0.5-0.3-0.8-0.3c-0.2,0-0.4,0-0.6,0.1c-0.2,0.1-0.3,0.2-0.4,0.4c-0.1,0.2-0.1,0.4-0.1,0.6l-0.6-0.3
	c0-0.5,0.1-0.9,0.3-1.2c0.2-0.3,0.5-0.6,0.8-0.8c0.4-0.2,0.7-0.3,1.2-0.3c0.4,0,0.8,0.1,1.1,0.3c0.3,0.2,0.6,0.5,0.8,0.8
	c0.2,0.3,0.3,0.7,0.3,1.1V46H140z M136.1,46v-5.8h1.6V46H136.1z M145.6,46.1c-0.6,0-1.1-0.1-1.6-0.4c-0.5-0.3-0.8-0.6-1.1-1.1
	c-0.3-0.5-0.4-1-0.4-1.6c0-0.6,0.1-1.1,0.4-1.5c0.3-0.5,0.6-0.8,1.1-1.1c0.5-0.3,1-0.4,1.5-0.4c0.6,0,1.1,0.1,1.5,0.4
	c0.4,0.2,0.8,0.6,1,1c0.2,0.4,0.4,0.9,0.4,1.5c0,0.1,0,0.2,0,0.3c0,0.1,0,0.2-0.1,0.4l-4.9,0v-1.2l4.1,0l-0.6,0.5
	c0-0.3-0.1-0.6-0.2-0.9c-0.1-0.2-0.3-0.4-0.5-0.5c-0.2-0.1-0.4-0.2-0.7-0.2c-0.3,0-0.6,0.1-0.8,0.2c-0.2,0.1-0.4,0.3-0.5,0.6
	c-0.1,0.2-0.2,0.5-0.2,0.9c0,0.4,0.1,0.7,0.2,0.9c0.1,0.3,0.3,0.5,0.6,0.6c0.2,0.1,0.5,0.2,0.9,0.2c0.3,0,0.6,0,0.8-0.1
	c0.2-0.1,0.4-0.3,0.6-0.5l0.9,0.9c-0.3,0.3-0.6,0.6-1,0.7C146.6,46,146.1,46.1,145.6,46.1z M149.4,46v-8.7h1.6V46H149.4z"/>
<path class="st1" d="M24.1,43.5c-1.4-1.7-2.5-3.6-3.2-5.7c-0.4-1.4-0.8-2.7-0.7-4.1c0-1.7,0.3-3.3,0.8-4.9c0.5-1.6,1-3.3,1.3-5
	c0.3-1.8,0.4-3.7,0.1-5.5c0-0.2-0.2-0.4-0.4-0.5c-1.9-0.7-3.4-2.1-4.7-3.7c-1-1.1-2-2.3-3-3.4c-0.2-0.2-0.3-0.5-0.5-0.7
	c0.1-0.1,0.1-0.1,0.2-0.2c0.2,0.1,0.3,0.1,0.5,0.3c1.2,1,2.5,2,3.7,2.9c1.3,1,2.8,1.8,4.4,2.2c1.8,0.4,3.5,0.2,5.2-0.6
	c1.3-0.6,2.5-1.5,3.5-2.5c0.5-0.6,1.1-1.1,1.7-1.6c0.1-0.1,0.3-0.2,0.5-0.2c0.1,0,0.1,0.1,0.2,0.1c-0.1,0.3-0.2,0.7-0.4,0.9
	c-0.8,1.1-1.6,2.3-2.5,3.4c-1.1,1.3-2.4,2.4-4.1,2.8c-0.4,0.1-0.4,0.3-0.4,0.6c0,1.7,0,3.4-0.1,5.1c-0.1,1-0.4,2.1-0.8,3
	c-0.5,1.4-1.2,2.6-1.8,4c-0.8,1.7-1.1,3.5-1,5.4c0.1,2.6,0.6,5.1,1.6,7.5C24.1,43.4,24.1,43.5,24.1,43.5z"/>
<path class="st2" d="M4.8,15.6c0.6-1,1.1-2,1.8-2.9c1.9-2.7,4.4-4.8,7.3-6.3c1.4-0.8,2.9-1.4,4.5-1.8c2.4-0.6,4.8-0.8,7.3-0.5
	c2.7,0.3,5.3,1,7.8,2.2c2.3,1.1,4.4,2.4,6.2,4.3c1.4,1.4,2.5,3,3.5,4.7c1.2,2.2,2,4.5,2.4,7c0.3,1.8,0.3,3.7,0.2,5.5
	c-0.2,2.5-0.8,4.8-1.8,7c-1.3,2.8-3.1,5.3-5.7,7.2c-1.6,1.2-3.3,2.2-5.1,3c-0.2,0.1-0.3,0.1-0.5,0.1c0.5-0.3,1.1-0.5,1.6-0.8
	c4.3-2.4,7.3-6,9-10.7c1.1-2.9,1.4-5.9,1-8.9c-0.5-3.9-1.9-7.4-4.4-10.6c-3-3.8-6.8-6.3-11.5-7.6c-5.2-1.4-10.2-1-15,1.3
	c-2.9,1.4-5.3,3.4-7.3,6c-0.4,0.6-0.8,1.2-1.2,1.9C4.9,15.6,4.8,15.6,4.8,15.6z"/>
<path class="st1" d="M165.7,26.5c0.1-0.7,0.4-1.3,0.4-1.9c0-4.2,0-8.3,0-12.5c0-0.7-0.2-1.4-0.4-2.1c1.7,0,3.5,0,5.1,0
	c0.3,1,0.5,1.9,0.9,2.7c1.2,2.5,2.5,4.9,4,7.7c1.1-1.9,2-3.6,2.9-5.3c0.6-1.1,1.2-2.1,1.7-3.2c0.2-0.5,0.2-1.1,0.4-1.8
	c1.5,0,3.3,0,5,0c-0.1,0.8-0.3,1.5-0.3,2.2c0,4.1,0,8.2,0,12.3c0,0.6,0.2,1.2,0.3,1.9c-1.3,0-2.8,0-4.1,0c0.1-0.7,0.3-1.5,0.3-2.2
	c0-2.7,0-5.3,0-8c0-0.3,0-0.6-0.4-0.9c-2,3.6-4,7.2-6.2,11c-2-3.8-3.9-7.4-5.9-11.1c-0.6,1.8-0.4,10.3,0.2,11.3
	C168.4,26.5,167,26.5,165.7,26.5z"/>
<path class="st1" d="M133,26.8c-4.7-0.1-7.9-2.3-9.1-6.4c-1.4-4.9,1.8-9.8,6.9-10.5c3.3-0.5,6.3-0.2,8.9,2.1
	c2.6,2.3,3.3,5.3,2.4,8.5c-0.9,3.2-3.1,5.2-6.4,5.9C134.8,26.7,133.9,26.7,133,26.8z M139,18.2c0-3.5-2.5-6-6-6
	c-3.3,0-5.9,2.5-5.9,5.8c0,3.6,2.4,6.1,5.9,6.1C136.6,24.1,139,21.8,139,18.2z"/>
<path class="st1" d="M156,13c0.9,0,1.9,0,2.8,0c0,4.5,0,9,0,13.5c-1,0-2.1,0-3.1,0c-0.3-0.5-0.4-1.1-0.7-1.5
	c-2.3-2.5-4.7-4.9-7.1-7.4c-0.1-0.1-0.3-0.2-0.6-0.5c0,3.2,0,6.2,0,9.3c-0.8,0-1.8,0-2.8,0c0-4.5,0-9,0-13.5c1.1,0,2.3,0,3.5,0
	c0.2,0.4,0.2,1,0.5,1.3c2.3,2.5,4.7,5,7.1,7.4c0.1,0.1,0.2,0.1,0.5,0.2C156,18.9,156,16,156,13z"/>
<path class="st3" d="M106.3,26.8c-5.7-0.1-9.1-4.6-7.4-9.6c1.2-3.5,4.9-5.3,9.4-4.5c5.1,0.9,7.6,6.2,5,10.7
	C112,25.6,109.5,26.9,106.3,26.8z M101.5,19.6c0,2.8,1.9,4.8,4.8,4.9c2.9,0,4.9-2,4.9-4.8c0-2.9-1.9-4.8-4.8-4.9
	C103.5,14.9,101.6,16.7,101.5,19.6z"/>
<path class="st3" d="M78.9,25.1c0.4-0.9,0.9-1.9,1.3-2.9c1.6,2.1,3.8,2.3,6.1,2.3c0.5,0,1.2-0.1,1.6-0.4c0.5-0.5,0.9-1.1,1.3-1.7
	c-0.5-0.4-1-0.9-1.6-1c-1.6-0.3-3.1-0.4-4.7-0.7c-2.1-0.3-3.3-1.5-3.4-3.2c-0.2-2,0.8-3.6,2.7-4.3c2.2-0.8,4.5-0.7,6.7,0.1
	c1,0.3,2,0.7,3.1,1.1c-0.4,0.8-0.9,1.8-1.4,2.8c-1.9-2.1-4.2-2.4-6.7-2c-0.3,0-0.6,0.1-0.8,0.3c-0.3,0.4-0.8,0.9-0.7,1.3
	c0,0.4,0.6,0.9,1.1,1c1.6,0.3,3.1,0.4,4.7,0.7c1.8,0.3,3.3,0.9,3.9,2.9c0.6,2-0.3,3.9-2.2,4.8c-2.9,1.2-5.8,1-8.6-0.2
	C80.3,25.6,79.6,25.4,78.9,25.1z"/>
<path class="st1" d="M26.2,12.4c0,1.3-0.6,2.1-1.8,2.4c-0.6,0.2-1.1,0-1.5-0.4c-1-0.9-1-2.8,0-3.7c0.6-0.5,1.3-0.7,2-0.4
	c0.8,0.3,1.2,0.9,1.3,1.8C26.1,12.2,26.1,12.3,26.2,12.4z"/>
<path class="st1" d="M198.9,26.5c0.4-2.1-0.7-3.5-2.8-3.5c-1,0-2.1,0-3.1,0c-1.8,0-3,1.6-2.4,3.5c-1.2,0-2.4,0-3.5,0
	c1.1-2.2,2.2-4.4,3.2-6.6c1-2.2,2.5-4.3,2.8-6.9c1.1,0,2.3,0,3.4,0c0.2,0.7,0.3,1.4,0.6,2c1.6,3.2,3.2,6.5,4.8,9.7
	c0.3,0.6,0.7,1.2,1,1.8C201.6,26.5,200.2,26.5,198.9,26.5z M192.4,21.1c1.7,0,3.1,0,4.7,0c-0.8-1.7-1.5-3.3-2.4-5.1
	C193.8,17.9,193.1,19.4,192.4,21.1z"/>
<path class="st3" d="M60,12.8c1.9,0,4.1,0,6.3,0c2.1,0,4.2-0.1,6.3-0.1c0,0.7,0,1.7,0,2.5c-3.1,0-6.3,0-9.5,0c0,0.9,0,2,0,2.9
	c2.2,0,4.3,0,6.5,0c0,0.8,0,1.8,0,2.7c-2.1,0-4.3,0-6.4,0c0,1.8,0,3.7,0,5.7c-1,0-2.2,0-3.2,0C60,22,60,17.5,60,12.8z"/>
<path class="st3" d="M97.2,26.5c-1.3,0-2.6,0-3.9,0c0.6-1.2,0.6-12.5-0.1-13.6c1.3,0,2.6,0,3.8,0C96.5,14.2,96.6,25.4,97.2,26.5z"/>
<path class="st3" d="M73.9,12.9c0,0,0.1,0,0.1,0c1.1,0,2.2,0,3.3,0c-0.6,2.3-0.3,4.5-0.3,6.8c0,2.3-0.3,4.6,0.2,6.9
	c-1.1,0-2.3,0-3.4,0C73.9,22,73.9,17.5,73.9,12.9z"/>
<path class="st2" d="M27.3,29c-0.7,0-1.3-0.7-1.3-1.4c0-0.7,0.7-1.3,1.4-1.3c0.8,0,1.4,0.7,1.3,1.4C28.7,28.5,28.1,29,27.3,29z"/>
<path class="st2" d="M27.9,23c0.7,0,1.1,0.4,1.1,1.1c0,0.6-0.5,1.1-1.1,1.1c-0.6,0-1.1-0.5-1.1-1.1C26.8,23.5,27.3,23,27.9,23z"/>
<path class="st2" d="M25.8,33.5c0,0.6-0.5,1.1-1.1,1.1c-0.6,0-1.1-0.5-1.1-1.1c0-0.6,0.5-1.1,1.1-1.1C25.4,32.4,25.8,32.9,25.8,33.5
	z"/>
<path class="st2" d="M25.9,29.6c0.6,0,1.1,0.4,1.1,1c0,0.6-0.5,1.1-1.1,1.1c-0.6,0-1.1-0.5-1.1-1.1C24.8,30.1,25.3,29.6,25.9,29.6z"
	/>
<path class="st2" d="M25.1,36.4c0,0.5-0.3,0.9-0.8,0.8c-0.4,0-0.8-0.4-0.8-0.8c0-0.4,0.3-0.8,0.8-0.8C24.7,35.6,25.1,35.9,25.1,36.4
	z"/>
<path class="st2" d="M27.9,22.1c-0.4,0-0.8-0.4-0.8-0.8c0-0.4,0.4-0.8,0.8-0.8c0.4,0,0.8,0.4,0.8,0.9C28.7,21.8,28.4,22.1,27.9,22.1
	z"/>
<path class="st2" d="M24.5,40c-0.5,0-0.8-0.3-0.8-0.8c0-0.4,0.4-0.8,0.8-0.8c0.4,0,0.8,0.3,0.8,0.8C25.3,39.6,24.9,40,24.5,40z"/>
<path class="st2" d="M28.3,19.1c-0.2,0.2-0.4,0.4-0.6,0.4c-0.2,0-0.5-0.3-0.5-0.5c0-0.2,0.3-0.5,0.5-0.5c0.2,0,0.4,0.2,0.6,0.4
	C28.3,19,28.3,19.1,28.3,19.1z"/>
<path class="st2" d="M32.3,101c-0.5,0.4-0.8,0.8-1.2,0.9c-0.5,0.1-0.9-0.2-1-0.8c0-0.6,0.4-1,0.9-0.9
	C31.3,100.2,31.7,100.6,32.3,101z"/>
</svg>
