<?xml version="1.0" encoding="utf-8"?>
<!-- Generator: Adobe Illustrator 27.0.0, SVG Export Plug-In . SVG Version: 6.00 Build 0)  -->
<svg version="1.1" id="Layer_1" xmlns="http://www.w3.org/2000/svg" xmlns:xlink="http://www.w3.org/1999/xlink" x="0px" y="0px"
	 viewBox="0 0 100 100" style="enable-background:new 0 0 100 100;" xml:space="preserve">
<style type="text/css">
	.st0{fill:#5F6FFF;}
	.st1{fill:#6D6F6E;}
	.st2{fill:#232323;}
</style>
<g>
	<path class="st0" d="M51.4,73.9c-2.4-2.9-4.3-6.1-5.4-9.7c-0.7-2.3-1.3-4.7-1.3-7.1c0.1-2.8,0.5-5.7,1.3-8.4
		c0.9-2.8,1.7-5.7,2.2-8.6c0.5-3.1,0.7-6.3,0.1-9.4c0-0.3-0.3-0.7-0.6-0.8c-3.3-1.3-5.8-3.7-8.1-6.3c-1.7-2-3.4-3.9-5.1-5.9
		c-0.3-0.4-0.6-0.8-0.9-1.2c0.1-0.1,0.2-0.2,0.3-0.3c0.3,0.1,0.6,0.2,0.8,0.5c2.1,1.7,4.2,3.4,6.4,5c2.3,1.7,4.8,3.1,7.6,3.8
		c3.1,0.8,6,0.4,9-1c2.3-1,4.2-2.5,6-4.3c0.9-1,2-1.8,3-2.7c0.2-0.2,0.5-0.3,0.8-0.4c0.1,0.1,0.2,0.1,0.3,0.2
		c-0.2,0.5-0.3,1.1-0.7,1.6c-1.4,2-2.8,4-4.3,5.8c-1.9,2.3-4.2,4-7.1,4.9c-0.6,0.2-0.7,0.5-0.7,1c0,2.9,0,5.9-0.2,8.8
		c-0.2,1.8-0.7,3.5-1.3,5.2c-0.9,2.3-2.1,4.5-3.1,6.8c-1.3,3-1.9,6.1-1.7,9.3c0.2,4.4,1,8.7,2.7,12.9C51.3,73.6,51.3,73.8,51.4,73.9
		z"/>
	<path class="st1" d="M18.3,25.8c1-1.6,2-3.4,3-5c3.2-4.7,7.5-8.2,12.5-10.8c2.5-1.3,5-2.4,7.7-3.1c4.1-1.1,8.3-1.3,12.6-0.9
		c4.7,0.5,9.2,1.7,13.4,3.7c3.9,1.9,7.6,4.2,10.6,7.3c2.3,2.5,4.3,5.2,6,8.1c2.1,3.8,3.5,7.8,4.2,12c0.5,3.1,0.6,6.3,0.3,9.5
		c-0.3,4.2-1.4,8.3-3.1,12.1c-2.2,4.9-5.4,9.1-9.8,12.3c-2.8,2-5.7,3.8-8.8,5.2c-0.3,0.1-0.5,0.2-0.9,0.2c0.9-0.5,1.9-0.9,2.8-1.4
		c7.4-4.2,12.6-10.3,15.5-18.4c1.8-5,2.4-10.1,1.8-15.3c-0.8-6.7-3.3-12.8-7.5-18.1c-5.2-6.5-11.7-10.9-19.7-13.1
		c-8.8-2.4-17.5-1.7-25.8,2.3c-5,2.4-9.2,5.9-12.5,10.3c-0.8,1-1.4,2.1-2.1,3.2C18.4,25.9,18.4,25.8,18.3,25.8z"/>
	<path class="st0" d="M73.4,93.9c0.1-0.5,0.2-0.9,0.3-1.3c0-2.8,0-5.7,0-8.5c0-0.5-0.2-0.9-0.2-1.4c1.2,0,2.4,0,3.5,0
		c0.2,0.7,0.3,1.3,0.6,1.8c0.8,1.7,1.7,3.4,2.7,5.2c0.7-1.3,1.4-2.5,2-3.6c0.4-0.7,0.8-1.4,1.2-2.2c0.2-0.3,0.2-0.8,0.2-1.2
		c1.1,0,2.3,0,3.4,0c-0.1,0.5-0.2,1-0.2,1.5c0,2.8,0,5.6,0,8.4c0,0.4,0.1,0.8,0.2,1.3c-0.9,0-1.9,0-2.8,0c0.1-0.5,0.2-1,0.2-1.5
		c0-1.8,0-3.6,0-5.4c0-0.2,0-0.4-0.2-0.6c-1.4,2.5-2.8,4.9-4.2,7.5c-1.4-2.6-2.7-5-4-7.6c-0.4,1.2-0.2,7,0.2,7.7
		C75.2,93.9,74.2,93.9,73.4,93.9z"/>
	<path class="st0" d="M51.1,94.1c-3.2-0.1-5.4-1.6-6.2-4.3c-0.9-3.3,1.3-6.7,4.7-7.2c2.2-0.3,4.3-0.1,6.1,1.4
		c1.8,1.6,2.2,3.6,1.6,5.8s-2.1,3.6-4.4,4.1C52.3,94,51.7,94.1,51.1,94.1z M55.2,88.3c0-2.4-1.7-4.1-4.1-4.1c-2.3,0-4,1.7-4,4
		c0,2.4,1.7,4.2,4,4.1C53.5,92.3,55.2,90.7,55.2,88.3z"/>
	<path class="st0" d="M66.7,84.7c0.6,0,1.3,0,1.9,0c0,3.1,0,6.1,0,9.2c-0.7,0-1.4,0-2.1,0c-0.2-0.4-0.3-0.7-0.5-1
		c-1.6-1.7-3.2-3.4-4.8-5.1c-0.1-0.1-0.2-0.2-0.4-0.3c0,2.2,0,4.2,0,6.3c-0.6,0-1.3,0-1.9,0c0-3,0-6.1,0-9.2c0.8,0,1.6,0,2.4,0
		c0.1,0.3,0.2,0.7,0.4,0.9c1.6,1.7,3.2,3.4,4.8,5.1c0.1,0.1,0.2,0.1,0.3,0.2C66.7,88.7,66.7,86.7,66.7,84.7z"/>
	<path class="st2" d="M32.9,94.1c-3.9-0.1-6.2-3.1-5.1-6.5c0.8-2.4,3.4-3.6,6.4-3.1c3.5,0.6,5.2,4.2,3.4,7.3
		C36.8,93.3,35,94.2,32.9,94.1z M29.6,89.2c0,1.9,1.3,3.3,3.3,3.3c2,0,3.4-1.3,3.4-3.2c0-2-1.3-3.3-3.3-3.3
		C31,86,29.6,87.3,29.6,89.2z"/>
	<path class="st2" d="M14.2,93c0.3-0.6,0.6-1.3,0.9-2c1.1,1.4,2.6,1.6,4.1,1.6c0.4,0,0.8-0.1,1.1-0.3c0.4-0.3,0.6-0.8,0.9-1.2
		c-0.4-0.2-0.7-0.6-1.1-0.7c-1.1-0.2-2.1-0.3-3.2-0.4c-1.4-0.2-2.2-1-2.4-2.2c-0.1-1.4,0.5-2.4,1.9-2.9c1.5-0.6,3-0.5,4.6,0.1
		c0.7,0.2,1.4,0.5,2.1,0.8c-0.3,0.6-0.6,1.2-1,1.9c-1.3-1.4-2.9-1.6-4.6-1.3c-0.2,0-0.4,0.1-0.6,0.2c-0.2,0.3-0.5,0.6-0.5,0.9
		c0,0.3,0.4,0.6,0.7,0.7c1.1,0.2,2.1,0.3,3.2,0.4c1.2,0.2,2.3,0.6,2.6,1.9c0.4,1.3-0.2,2.7-1.5,3.3c-2,0.8-3.9,0.7-5.9-0.1
		C15.1,93.3,14.7,93.2,14.2,93z"/>
	<path class="st0" d="M55,20.5c0,2.2-1.1,3.6-3.1,4.2c-1,0.3-1.8,0-2.6-0.7c-1.8-1.5-1.7-4.8,0-6.4c1-0.9,2.2-1.3,3.5-0.8
		c1.3,0.5,2.1,1.6,2.2,3.1C54.9,20.1,54.9,20.3,55,20.5z"/>
	<path class="st0" d="M96,93.9c0.3-1.4-0.5-2.4-1.9-2.4c-0.7,0-1.4,0-2.1,0c-1.2,0-2,1.1-1.6,2.4c-0.8,0-1.6,0-2.4,0
		c0.7-1.5,1.5-3,2.2-4.5c0.7-1.5,1.7-2.9,1.9-4.7c0.8,0,1.6,0,2.3,0c0.1,0.5,0.2,1,0.4,1.4c1.1,2.2,2.2,4.4,3.3,6.6
		c0.2,0.4,0.4,0.8,0.7,1.2C97.8,93.9,96.9,93.9,96,93.9z M91.5,90.2c1.1,0,2.1,0,3.2,0c-0.6-1.2-1.1-2.2-1.6-3.5
		C92.5,88,92.1,89.1,91.5,90.2z"/>
	<path class="st2" d="M1.3,84.6c1.3,0,2.8,0,4.3,0c1.4,0,2.9-0.1,4.3-0.1c0,0.5,0,1.2,0,1.7c-2.1,0-4.3,0-6.4,0c0,0.6,0,1.3,0,2
		c1.5,0,2.9,0,4.4,0c0,0.5,0,1.2,0,1.8c-1.4,0-2.9,0-4.3,0c0,1.2,0,2.5,0,3.9c-0.7,0-1.5,0-2.2,0C1.3,90.8,1.3,87.8,1.3,84.6z"/>
	<path class="st2" d="M26.6,93.9c-0.9,0-1.8,0-2.6,0c0.4-0.8,0.4-8.5,0-9.3c0.9,0,1.7,0,2.6,0C26.2,85.5,26.2,93.2,26.6,93.9z"/>
	<path class="st2" d="M10.8,84.6C10.8,84.6,10.8,84.6,10.8,84.6c0.9,0,1.6,0,2.3,0c-0.4,1.6-0.2,3.1-0.2,4.6c0,1.6-0.2,3.1,0.2,4.7
		c-0.7,0-1.6,0-2.3,0C10.8,90.8,10.8,87.8,10.8,84.6z"/>
	<path class="st1" d="M56.9,48.9c-1.3,0-2.3-1.1-2.3-2.4c0-1.3,1.2-2.3,2.4-2.3c1.3,0,2.3,1.1,2.3,2.5C59.2,48,58.2,49,56.9,48.9z"
		/>
	<path class="st1" d="M57.9,38.6c1.1,0,1.9,0.7,1.9,1.8c0,1-0.8,1.9-1.9,1.9c-1,0-1.9-0.9-1.9-1.9C56,39.5,56.9,38.6,57.9,38.6z"/>
	<path class="st1" d="M54.4,56.7c0,1-0.8,1.8-1.8,1.8c-1,0-1.9-0.9-1.9-1.8c0-1,0.9-1.9,1.9-1.9C53.6,54.8,54.4,55.6,54.4,56.7z"/>
	<path class="st1" d="M54.5,50c1,0,1.8,0.8,1.8,1.8c0,1.1-0.8,1.9-1.8,1.9c-1,0-1.9-0.8-1.9-1.8C52.7,50.8,53.5,50,54.5,50z"/>
	<path class="st1" d="M53.2,61.6c0,0.8-0.6,1.5-1.4,1.5c-0.7,0-1.4-0.7-1.4-1.4c0-0.8,0.6-1.4,1.3-1.4
		C52.5,60.2,53.1,60.7,53.2,61.6z"/>
	<path class="st1" d="M58,37.1c-0.8,0-1.3-0.6-1.3-1.4c0-0.8,0.7-1.4,1.4-1.4c0.8,0,1.4,0.7,1.4,1.5C59.4,36.5,58.8,37.1,58,37.1z"
		/>
	<path class="st1" d="M52,67.8c-0.8,0-1.4-0.6-1.4-1.4c0-0.8,0.6-1.4,1.4-1.4c0.7,0,1.4,0.6,1.4,1.3C53.5,67.2,52.8,67.8,52,67.8z"
		/>
	<path class="st1" d="M58.6,32c-0.4,0.3-0.7,0.7-1.1,0.7c-0.3,0-0.8-0.5-0.8-0.9c0-0.3,0.5-0.8,0.8-0.9c0.4,0,0.7,0.4,1.1,0.6
		C58.6,31.7,58.6,31.8,58.6,32z"/>
	<path class="st1" d="M54,70.7c-0.5,0.4-0.8,0.8-1.2,0.9c-0.5,0.1-0.9-0.2-1-0.8c0-0.6,0.4-1,0.9-0.9C53.1,69.9,53.4,70.3,54,70.7z"
		/>
</g>
</svg>
