<?xml version="1.0" encoding="utf-8"?>
<!-- Generator: Adobe Illustrator 23.0.6, SVG Export Plug-In . SVG Version: 6.00 Build 0)  -->
<svg version="1.1" id="Layer_1" xmlns="http://www.w3.org/2000/svg" xmlns:xlink="http://www.w3.org/1999/xlink" x="0px" y="0px"
	 viewBox="0 0 100 100" style="enable-background:new 0 0 100 100;" xml:space="preserve">
<style type="text/css">
	.st0{fill:#007876;}
	.st1{fill:#6D6F6E;}
	.st2{fill:#232323;}
</style>
<g>
	<path class="st0" d="M51.37,73.86c-2.39-2.93-4.28-6.11-5.42-9.71c-0.74-2.32-1.33-4.68-1.26-7.12c0.08-2.85,0.47-5.67,1.35-8.43
		c0.9-2.83,1.71-5.71,2.23-8.62c0.55-3.1,0.66-6.27,0.1-9.41c-0.05-0.3-0.34-0.71-0.61-0.81c-3.34-1.26-5.78-3.66-8.06-6.27
		c-1.7-1.95-3.42-3.89-5.12-5.85c-0.33-0.38-0.6-0.82-0.9-1.22c0.09-0.1,0.19-0.19,0.28-0.29c0.28,0.15,0.59,0.25,0.83,0.45
		c2.13,1.67,4.22,3.41,6.39,5.03c2.3,1.72,4.8,3.11,7.61,3.82c3.09,0.77,6.05,0.38,8.95-0.95c2.3-1.05,4.22-2.55,5.99-4.32
		c0.94-0.95,1.97-1.81,2.99-2.68c0.22-0.19,0.54-0.28,0.81-0.42c0.09,0.06,0.18,0.12,0.27,0.18c-0.21,0.53-0.33,1.13-0.65,1.59
		c-1.41,1.97-2.79,3.96-4.34,5.81c-1.9,2.27-4.2,4.05-7.11,4.85c-0.61,0.17-0.67,0.47-0.68,1c-0.04,2.95,0.04,5.9-0.23,8.83
		c-0.16,1.77-0.71,3.55-1.35,5.22c-0.9,2.33-2.1,4.55-3.1,6.84c-1.3,2.96-1.89,6.06-1.72,9.29c0.24,4.42,1.05,8.74,2.68,12.87
		C51.35,73.64,51.35,73.75,51.37,73.86z"/>
	<path class="st1" d="M18.28,25.8c1.01-1.65,1.95-3.35,3.03-4.95c3.2-4.71,7.48-8.17,12.49-10.83c2.46-1.31,5-2.39,7.7-3.08
		c4.13-1.06,8.32-1.35,12.58-0.87c4.67,0.53,9.15,1.73,13.41,3.74c3.95,1.86,7.63,4.15,10.64,7.35c2.32,2.46,4.35,5.16,5.99,8.13
		c2.08,3.75,3.48,7.75,4.18,11.98c0.52,3.14,0.59,6.3,0.35,9.49c-0.32,4.23-1.36,8.27-3.12,12.09c-2.25,4.88-5.4,9.08-9.81,12.29
		c-2.77,2.01-5.66,3.78-8.79,5.16c-0.26,0.12-0.53,0.21-0.86,0.18c0.92-0.48,1.86-0.94,2.76-1.45c7.45-4.2,12.62-10.34,15.54-18.36
		c1.81-4.97,2.4-10.11,1.77-15.35c-0.81-6.73-3.31-12.79-7.52-18.12c-5.15-6.5-11.74-10.88-19.72-13.08
		c-8.85-2.44-17.45-1.7-25.75,2.27c-5.02,2.4-9.16,5.88-12.5,10.31c-0.77,1.02-1.43,2.12-2.14,3.19
		C18.43,25.86,18.35,25.83,18.28,25.8z"/>
	<path class="st0" d="M73.38,93.9c0.1-0.49,0.25-0.9,0.26-1.3c0.02-2.83,0.02-5.66,0-8.5c0-0.46-0.16-0.93-0.25-1.43
		c1.17,0,2.41,0,3.48,0c0.2,0.65,0.32,1.27,0.59,1.81c0.84,1.7,1.73,3.36,2.71,5.24c0.73-1.32,1.37-2.48,2-3.64
		c0.39-0.72,0.81-1.42,1.15-2.16c0.16-0.34,0.16-0.76,0.24-1.24c1.05,0,2.28,0,3.42,0c-0.07,0.52-0.2,1.01-0.2,1.5
		c-0.02,2.8-0.01,5.61,0,8.41c0,0.41,0.13,0.82,0.21,1.27c-0.91,0-1.92,0-2.79,0c0.07-0.49,0.21-1,0.22-1.52
		c0.03-1.81,0.01-3.62,0.01-5.43c0-0.19-0.03-0.38-0.24-0.64c-1.38,2.46-2.76,4.93-4.22,7.51c-1.36-2.57-2.66-5.01-4.01-7.56
		c-0.4,1.22-0.25,6.99,0.16,7.67C75.17,93.9,74.24,93.9,73.38,93.9z"/>
	<path class="st0" d="M51.09,94.13c-3.18-0.05-5.39-1.59-6.17-4.34c-0.94-3.33,1.26-6.69,4.67-7.19c2.22-0.32,4.32-0.14,6.08,1.44
		c1.76,1.59,2.23,3.61,1.63,5.82c-0.6,2.21-2.14,3.56-4.39,4.05C52.32,94.04,51.7,94.06,51.09,94.13z M55.16,88.28
		c-0.01-2.4-1.71-4.09-4.08-4.08c-2.28,0.02-3.99,1.72-4.01,3.98c-0.03,2.42,1.66,4.16,4,4.13C53.52,92.29,55.17,90.67,55.16,88.28z
		"/>
	<path class="st0" d="M66.74,84.7c0.63,0,1.29,0,1.92,0c0,3.06,0,6.12,0,9.19c-0.66,0-1.44,0-2.13,0c-0.18-0.37-0.28-0.74-0.51-0.99
		c-1.6-1.7-3.23-3.37-4.85-5.05c-0.09-0.1-0.21-0.16-0.4-0.31c0,2.17,0,4.24,0,6.34c-0.57,0-1.26,0-1.91,0c0-3.04,0-6.1,0-9.19
		c0.77,0,1.58,0,2.36,0c0.12,0.3,0.16,0.67,0.36,0.88c1.59,1.71,3.21,3.39,4.83,5.07c0.05,0.06,0.15,0.07,0.34,0.15
		C66.74,88.74,66.74,86.74,66.74,84.7z"/>
	<path class="st2" d="M32.87,94.14c-3.86-0.07-6.22-3.11-5.06-6.53c0.81-2.39,3.35-3.61,6.41-3.1c3.47,0.58,5.2,4.25,3.43,7.28
		C36.76,93.32,35.02,94.18,32.87,94.14z M29.62,89.23c-0.03,1.94,1.3,3.29,3.28,3.32c1.95,0.03,3.36-1.33,3.37-3.24
		c0.01-1.96-1.31-3.3-3.29-3.32C30.99,85.97,29.65,87.26,29.62,89.23z"/>
	<path class="st2" d="M14.16,92.96c0.28-0.64,0.58-1.3,0.88-2c1.08,1.41,2.57,1.6,4.13,1.58c0.37-0.01,0.81-0.08,1.07-0.3
		c0.36-0.31,0.58-0.78,0.86-1.19c-0.36-0.24-0.7-0.61-1.1-0.69c-1.06-0.22-2.14-0.28-3.21-0.45c-1.42-0.23-2.24-1.03-2.35-2.21
		c-0.13-1.36,0.52-2.44,1.86-2.93c1.51-0.55,3.04-0.47,4.55,0.05c0.68,0.23,1.35,0.48,2.12,0.75c-0.28,0.56-0.61,1.21-0.95,1.89
		c-1.3-1.42-2.88-1.62-4.6-1.34c-0.2,0.03-0.44,0.09-0.56,0.23c-0.23,0.27-0.54,0.63-0.51,0.91c0.03,0.26,0.44,0.63,0.74,0.68
		c1.06,0.21,2.14,0.27,3.21,0.45c1.2,0.2,2.27,0.63,2.65,1.95c0.39,1.35-0.21,2.69-1.53,3.26c-1.96,0.85-3.93,0.69-5.87-0.11
		C15.14,93.31,14.7,93.16,14.16,92.96z"/>
	<path class="st0" d="M54.95,20.45c0.02,2.17-1.07,3.61-3.12,4.17c-1,0.27-1.85-0.04-2.58-0.69c-1.76-1.53-1.74-4.81,0-6.35
		c1.03-0.91,2.19-1.28,3.47-0.75c1.34,0.55,2.13,1.59,2.21,3.09C54.93,20.1,54.94,20.27,54.95,20.45z"/>
	<path class="st0" d="M96,93.89c0.28-1.42-0.51-2.38-1.94-2.38c-0.7,0-1.4,0-2.1,0c-1.24,0-2.03,1.12-1.63,2.37
		c-0.81,0-1.61,0-2.37,0c0.72-1.5,1.49-2.99,2.17-4.52c0.67-1.52,1.71-2.9,1.9-4.67c0.76,0,1.6,0,2.33,0
		c0.13,0.5,0.19,0.98,0.39,1.39c1.06,2.21,2.16,4.4,3.26,6.59c0.2,0.41,0.45,0.79,0.7,1.21C97.79,93.89,96.89,93.89,96,93.89z
		 M91.52,90.24c1.14,0,2.12,0,3.22,0c-0.56-1.19-1.05-2.25-1.62-3.49C92.53,88.03,92.05,89.08,91.52,90.24z"/>
	<path class="st2" d="M1.3,84.6c1.29,0,2.78,0.01,4.26,0c1.43-0.01,2.86-0.05,4.31-0.08c0,0.46,0,1.16,0,1.71c-2.14,0-4.26,0-6.45,0
		c0,0.64,0,1.34,0,2.01c1.47,0,2.91,0,4.41,0c0,0.54,0,1.21,0,1.81c-1.44,0-2.9,0-4.34,0c0,1.23,0,2.53,0,3.87
		c-0.69,0-1.53,0-2.18,0C1.33,90.84,1.33,87.76,1.3,84.6z"/>
	<path class="st2" d="M26.64,93.93c-0.88,0-1.75,0-2.63,0c0.42-0.85,0.42-8.54-0.04-9.28c0.89,0,1.74,0,2.59,0
		C26.19,85.5,26.24,93.15,26.64,93.93z"/>
	<path class="st2" d="M10.78,84.62c-0.02,0.01,0.04-0.02,0.09-0.02c0.76,0,1.51,0,2.25,0c-0.41,1.55-0.18,3.1-0.18,4.64
		c-0.01,1.55-0.19,3.12,0.17,4.69c-0.74,0-1.58,0-2.32,0C10.78,90.85,10.78,87.78,10.78,84.62z"/>
	<path class="st1" d="M56.91,48.91c-1.28-0.05-2.31-1.14-2.27-2.4c0.04-1.26,1.15-2.31,2.41-2.28c1.33,0.03,2.35,1.13,2.28,2.46
		C59.25,48.04,58.25,48.96,56.91,48.91z"/>
	<path class="st1" d="M57.9,38.56c1.12-0.01,1.88,0.71,1.91,1.82c0.03,1.05-0.8,1.89-1.86,1.89c-1.03,0-1.9-0.87-1.91-1.88
		C56.04,39.45,56.92,38.57,57.9,38.56z"/>
	<path class="st1" d="M54.4,56.69c-0.01,1-0.82,1.82-1.83,1.83c-1.02,0.01-1.93-0.86-1.92-1.85c0.01-1.01,0.93-1.94,1.9-1.9
		C53.59,54.79,54.41,55.64,54.4,56.69z"/>
	<path class="st1" d="M54.52,49.95c1.04,0,1.83,0.76,1.84,1.8c0.01,1.09-0.78,1.92-1.83,1.91c-1.02-0.01-1.86-0.82-1.87-1.81
		C52.65,50.79,53.47,49.96,54.52,49.95z"/>
	<path class="st1" d="M53.15,61.58c0.01,0.83-0.6,1.46-1.39,1.45c-0.69-0.01-1.37-0.71-1.37-1.42c-0.01-0.77,0.58-1.4,1.34-1.43
		C52.53,60.15,53.13,60.74,53.15,61.58z"/>
	<path class="st1" d="M58,37.06c-0.77-0.03-1.35-0.64-1.34-1.42c0.01-0.76,0.65-1.39,1.39-1.39c0.77,0,1.43,0.7,1.38,1.48
		C59.39,36.51,58.76,37.09,58,37.06z"/>
	<path class="st1" d="M52.05,67.81c-0.78,0-1.38-0.6-1.38-1.39c0-0.75,0.63-1.36,1.41-1.36c0.73-0.01,1.36,0.59,1.38,1.3
		C53.49,67.15,52.84,67.81,52.05,67.81z"/>
	<path class="st1" d="M58.64,31.95c-0.36,0.26-0.73,0.71-1.09,0.71c-0.3,0-0.79-0.55-0.81-0.87c-0.02-0.29,0.49-0.84,0.79-0.85
		c0.36-0.02,0.74,0.4,1.11,0.63C58.64,31.69,58.64,31.82,58.64,31.95z"/>
	<path class="st1" d="M54,70.73c-0.55,0.45-0.84,0.85-1.2,0.94c-0.55,0.13-0.94-0.23-0.98-0.83c-0.04-0.62,0.37-0.98,0.89-0.94
		C53.07,69.93,53.4,70.33,54,70.73z"/>
</g>
</svg>
